<?xml version="1.0" encoding="UTF-8" standalone="no"?>
<!-- Created with Inkscape (http://www.inkscape.org/) -->

<svg
   xmlns:dc="http://purl.org/dc/elements/1.1/"
   xmlns:cc="http://creativecommons.org/ns#"
   xmlns:rdf="http://www.w3.org/1999/02/22-rdf-syntax-ns#"
   xmlns:svg="http://www.w3.org/2000/svg"
   xmlns="http://www.w3.org/2000/svg"
   xmlns:sodipodi="http://sodipodi.sourceforge.net/DTD/sodipodi-0.dtd"
   xmlns:inkscape="http://www.inkscape.org/namespaces/inkscape"
   width="49.509842mm"
   height="11.309048mm"
   viewBox="0 0 175.42857 40.071429"
   id="svg2"
   version="1.1"
   inkscape:version="0.91 r13725"
   sodipodi:docname="logo.svg"
   inkscape:export-filename="/home/arton/Dropbox/hackathonfw/img/logo3.png"
   inkscape:export-xdpi="113.37948"
   inkscape:export-ydpi="113.37948">
  <defs
     id="defs4" />
  <sodipodi:namedview
     id="base"
     pagecolor="#ffffff"
     bordercolor="#666666"
     borderopacity="1.0"
     inkscape:pageopacity="0.0"
     inkscape:pageshadow="2"
     inkscape:zoom="2.8"
     inkscape:cx="64.921353"
     inkscape:cy="7.2316252"
     inkscape:document-units="px"
     inkscape:current-layer="layer1"
     showgrid="false"
     inkscape:window-width="1366"
     inkscape:window-height="708"
     inkscape:window-x="0"
     inkscape:window-y="0"
     inkscape:window-maximized="1"
     fit-margin-top="0"
     fit-margin-left="0"
     fit-margin-right="0"
     fit-margin-bottom="0" />
  <metadata
     id="metadata7">
    <rdf:RDF>
      <cc:Work
         rdf:about="">
        <dc:format>image/svg+xml</dc:format>
        <dc:type
           rdf:resource="http://purl.org/dc/dcmitype/StillImage" />
        <dc:title></dc:title>
      </cc:Work>
    </rdf:RDF>
  </metadata>
  <g
     inkscape:label="Camada 1"
     inkscape:groupmode="layer"
     id="layer1"
     transform="translate(-62.64286,-78.933632)">
    <g
       style="font-style:normal;font-weight:normal;font-size:12.5px;line-height:125%;font-family:sans-serif;letter-spacing:0px;word-spacing:0px;fill:#ffc000;fill-opacity:1;stroke:none;stroke-width:1px;stroke-linecap:butt;stroke-linejoin:miter;stroke-opacity:1"
       id="text3336">
      <path
         d="m 85.760713,91.055419 2.835,0 0,15.592501 -2.835,0 0,-6.907501 -6.7725,0 0,6.907501 -2.835,0 0,-15.592501 2.835,0 0,6.2325 6.7725,0 0,-6.2325 z"
         style="font-style:normal;font-variant:normal;font-weight:500;font-stretch:normal;font-size:22.5px;font-family:Ubuntu;-inkscape-font-specification:'Ubuntu Medium';fill:#ffc000;fill-opacity:1"
         id="path4173"
         inkscape:connector-curvature="0" />
      <path
         d="m 96.330088,104.73542 q 1.26,0 1.9125,-0.135 l 0,-3.015 q -0.225,-0.0675 -0.6525,-0.135 -0.4275,-0.0675 -0.945,-0.0675 -0.45,0 -0.9225,0.0675 -0.45,0.0675 -0.8325,0.2475 -0.36,0.18 -0.585,0.5175 -0.225,0.315 -0.225,0.81 0,0.9675 0.6075,1.35 0.6075,0.36 1.6425,0.36 z m -0.225,-10.147501 q 1.35,0 2.2725,0.3375 0.9225,0.3375 1.4625,0.945 0.562502,0.6075 0.787502,1.485 0.2475,0.855 0.2475,1.89 l 0,7.132501 q -0.63,0.135 -1.912502,0.315 -1.26,0.2025 -2.8575,0.2025 -1.0575,0 -1.935,-0.2025 -0.8775,-0.2025 -1.5075,-0.6525 -0.6075,-0.45 -0.9675,-1.17 -0.3375,-0.72 -0.3375,-1.7775 0,-1.0125 0.3825,-1.71 0.405,-0.6975 1.08,-1.125 0.675,-0.450001 1.5525,-0.630001 0.9,-0.2025 1.8675,-0.2025 0.45,0 0.945,0.0675 0.495,0.045 1.0575,0.18 l 0,-0.45 q 0,-0.4725 -0.1125,-0.9 -0.1125,-0.4275 -0.405,-0.7425 -0.27,-0.3375 -0.7425,-0.5175 -0.45,-0.18 -1.1475,-0.18 -0.945,0 -1.7325,0.135 -0.7875,0.135 -1.2825,0.315 l -0.3375,-2.205 q 0.5175,-0.18 1.5075,-0.36 0.99,-0.18 2.115,-0.18 z"
         style="font-style:normal;font-variant:normal;font-weight:500;font-stretch:normal;font-size:22.5px;font-family:Ubuntu;-inkscape-font-specification:'Ubuntu Medium';fill:#ffc000;fill-opacity:1"
         id="path4175"
         inkscape:connector-curvature="0" />
      <path
         d="m 103.53466,100.77542 q 0,-1.305001 0.405,-2.430001 0.405,-1.1475 1.1475,-1.98 0.765,-0.8325 1.845,-1.305 1.08,-0.4725 2.43,-0.4725 1.665,0 3.15,0.6075 l -0.585,2.2275 q -0.4725,-0.2025 -1.08,-0.3375 -0.585,-0.135 -1.26,-0.135 -1.5975,0 -2.43,1.0125 -0.8325,0.99 -0.8325,2.812501 0,1.755 0.7875,2.79 0.7875,1.0125 2.655,1.0125 0.6975,0 1.3725,-0.135 0.675,-0.135 1.17,-0.3375 l 0.3825,2.25 q -0.45,0.225 -1.3725,0.405 -0.9,0.18 -1.8675,0.18 -1.5075,0 -2.6325,-0.45 -1.1025,-0.4725 -1.845,-1.2825 -0.72,-0.8325 -1.08,-1.9575 -0.36,-1.1475 -0.36,-2.475 z"
         style="font-style:normal;font-variant:normal;font-weight:500;font-stretch:normal;font-size:22.5px;font-family:Ubuntu;-inkscape-font-specification:'Ubuntu Medium';fill:#ffc000;fill-opacity:1"
         id="path4177"
         inkscape:connector-curvature="0" />
      <path
         d="m 117.54442,99.470419 q 0.5175,-0.54 1.1025,-1.1475 0.585,-0.63 1.1475,-1.2375 0.5625,-0.63 1.0575,-1.1925 0.5175,-0.585 0.8775,-1.0125 l 3.2175,0 q -1.125,1.26 -2.385,2.61 -1.2375,1.35 -2.4975,2.632501 0.675,0.5625 1.4175,1.3725 0.7425,0.7875 1.44,1.6875 0.6975,0.9 1.305,1.8 0.6075,0.9 1.0125,1.665 l -3.15,0 q -0.405,-0.6975 -0.945,-1.4625 -0.5175,-0.765 -1.125,-1.485 -0.6075,-0.72 -1.2375,-1.35 -0.63,-0.6525 -1.2375,-1.1025 l 0,5.4 -2.7225,0 0,-17.010001 2.7225,-0.45 0,10.2825 z"
         style="font-style:normal;font-variant:normal;font-weight:500;font-stretch:normal;font-size:22.5px;font-family:Ubuntu;-inkscape-font-specification:'Ubuntu Medium';fill:#ffc000;fill-opacity:1"
         id="path4179"
         inkscape:connector-curvature="0" />
      <path
         d="m 131.3545,104.73542 q 1.26,0 1.9125,-0.135 l 0,-3.015 q -0.225,-0.0675 -0.6525,-0.135 -0.4275,-0.0675 -0.945,-0.0675 -0.45,0 -0.9225,0.0675 -0.45,0.0675 -0.8325,0.2475 -0.36,0.18 -0.585,0.5175 -0.225,0.315 -0.225,0.81 0,0.9675 0.6075,1.35 0.6075,0.36 1.6425,0.36 z m -0.225,-10.147501 q 1.35,0 2.2725,0.3375 0.9225,0.3375 1.4625,0.945 0.5625,0.6075 0.7875,1.485 0.2475,0.855 0.2475,1.89 l 0,7.132501 q -0.63,0.135 -1.9125,0.315 -1.26,0.2025 -2.8575,0.2025 -1.0575,0 -1.935,-0.2025 -0.8775,-0.2025 -1.5075,-0.6525 -0.6075,-0.45 -0.9675,-1.17 -0.3375,-0.72 -0.3375,-1.7775 0,-1.0125 0.3825,-1.71 0.405,-0.6975 1.08,-1.125 0.675,-0.450001 1.5525,-0.630001 0.9,-0.2025 1.8675,-0.2025 0.45,0 0.945,0.0675 0.495,0.045 1.0575,0.18 l 0,-0.45 q 0,-0.4725 -0.1125,-0.9 -0.1125,-0.4275 -0.405,-0.7425 -0.27,-0.3375 -0.7425,-0.5175 -0.45,-0.18 -1.1475,-0.18 -0.945,0 -1.7325,0.135 -0.7875,0.135 -1.2825,0.315 l -0.3375,-2.205 q 0.5175,-0.18 1.5075,-0.36 0.99,-0.18 2.115,-0.18 z"
         style="font-style:normal;font-variant:normal;font-weight:500;font-stretch:normal;font-size:22.5px;font-family:Ubuntu;-inkscape-font-specification:'Ubuntu Medium';fill:#ffc000;fill-opacity:1"
         id="path4181"
         inkscape:connector-curvature="0" />
      <path
         d="m 139.07657,91.775419 2.7225,-0.45 0,3.555 4.185,0 0,2.2725 -4.185,0 0,4.792501 q 0,1.4175 0.45,2.025 0.45,0.6075 1.53,0.6075 0.7425,0 1.305,-0.1575 0.585,-0.1575 0.9225,-0.2925 l 0.45,2.16 q -0.4725,0.2025 -1.2375,0.405 -0.765,0.225 -1.8,0.225 -1.26,0 -2.115,-0.3375 -0.8325,-0.3375 -1.3275,-0.9675 -0.495,-0.6525 -0.6975,-1.5525 -0.2025,-0.9225 -0.2025,-2.0925 l 0,-10.192501 z"
         style="font-style:normal;font-variant:normal;font-weight:500;font-stretch:normal;font-size:22.5px;font-family:Ubuntu;-inkscape-font-specification:'Ubuntu Medium';fill:#ffc000;fill-opacity:1"
         id="path4183"
         inkscape:connector-curvature="0" />
      <path
         d="m 148.61587,106.64792 0,-17.010001 2.7225,-0.45 0,5.8275 q 0.45,-0.1575 1.035,-0.27 0.6075,-0.1125 1.1925,-0.1125 1.4175,0 2.34,0.405 0.945,0.3825 1.5075,1.1025 0.5625,0.6975 0.7875,1.6875 0.2475,0.99 0.2475,2.205001 l 0,6.615 -2.7225,0 0,-6.1875 q 0,-0.945001 -0.135,-1.597501 -0.1125,-0.675 -0.405,-1.08 -0.27,-0.4275 -0.7425,-0.6075 -0.4725,-0.2025 -1.17,-0.2025 -0.54,0 -1.1025,0.1125 -0.5625,0.1125 -0.8325,0.2025 l 0,9.360001 -2.7225,0 z"
         style="font-style:normal;font-variant:normal;font-weight:500;font-stretch:normal;font-size:22.5px;font-family:Ubuntu;-inkscape-font-specification:'Ubuntu Medium';fill:#ffc000;fill-opacity:1"
         id="path4185"
         inkscape:connector-curvature="0" />
      <path
         d="m 172.35407,100.75292 q 0,1.395 -0.405,2.5425 -0.405,1.1475 -1.1475,1.9575 -0.7425,0.81 -1.8,1.26 -1.035,0.45 -2.295,0.45 -1.26,0 -2.295,-0.45 -1.035,-0.45 -1.7775,-1.26 -0.7425,-0.81 -1.17,-1.9575 -0.405,-1.1475 -0.405,-2.5425 0,-1.395001 0.405,-2.520001 0.4275,-1.1475 1.17,-1.9575 0.765,-0.81 1.8,-1.2375 1.035,-0.45 2.2725,-0.45 1.2375,0 2.2725,0.45 1.0575,0.4275 1.8,1.2375 0.7425,0.81 1.1475,1.9575 0.4275,1.125 0.4275,2.520001 z m -2.79,0 q 0,-1.755001 -0.765,-2.767501 -0.7425,-1.035 -2.0925,-1.035 -1.35,0 -2.115,1.035 -0.7425,1.0125 -0.7425,2.767501 0,1.7775 0.7425,2.8125 0.765,1.035 2.115,1.035 1.35,0 2.0925,-1.035 0.765,-1.035 0.765,-2.8125 z"
         style="font-style:normal;font-variant:normal;font-weight:500;font-stretch:normal;font-size:22.5px;font-family:Ubuntu;-inkscape-font-specification:'Ubuntu Medium';fill:#ffc000;fill-opacity:1"
         id="path4187"
         inkscape:connector-curvature="0" />
      <path
         d="m 175.15884,95.262919 q 0.7875,-0.225 2.0475,-0.4275 1.26,-0.2025 2.79,-0.2025 1.44,0 2.4075,0.405 0.9675,0.3825 1.53,1.1025 0.585,0.6975 0.81,1.71 0.2475,0.99 0.2475,2.182501 l 0,6.615 -2.7225,0 0,-6.1875 q 0,-0.945001 -0.135,-1.597501 -0.1125,-0.675 -0.405,-1.08 -0.27,-0.4275 -0.765,-0.6075 -0.4725,-0.2025 -1.17,-0.2025 -0.5175,0 -1.08,0.0675 -0.5625,0.0675 -0.8325,0.1125 l 0,9.495001 -2.7225,0 0,-11.385001 z"
         style="font-style:normal;font-variant:normal;font-weight:500;font-stretch:normal;font-size:22.5px;font-family:Ubuntu;-inkscape-font-specification:'Ubuntu Medium';fill:#ffc000;fill-opacity:1"
         id="path4189"
         inkscape:connector-curvature="0" />
      <path
         d="m 193.70692,106.64792 0,-15.592501 9.855,0 0,2.4075 -7.02,0 0,3.9825 6.2325,0 0,2.4075 -6.2325,0 0,6.795001 -2.835,0 z"
         style="font-style:normal;font-variant:normal;font-weight:500;font-stretch:normal;font-size:22.5px;font-family:Ubuntu;-inkscape-font-specification:'Ubuntu Medium';fill:#ffc000;fill-opacity:1"
         id="path4191"
         inkscape:connector-curvature="0" />
      <path
         d="m 216.0895,92.810419 q 0.36,1.215 0.765,2.5425 0.405,1.305 0.8325,2.6325 0.45,1.305 0.8775,2.587501 0.45,1.26 0.855,2.385 0.3375,-1.215 0.6525,-2.6325 0.315,-1.440001 0.63,-2.970001 0.315,-1.5525 0.6075,-3.15 0.315,-1.5975 0.585,-3.15 l 2.925,0 q -0.7875,4.23 -1.755,8.145 -0.9675,3.892501 -2.16,7.447501 l -2.7,0 q -1.755,-4.545 -3.3975,-9.922501 -0.8325,2.7225 -1.6875,5.175001 -0.855,2.4525 -1.71,4.7475 l -2.7,0 q -1.215,-3.555 -2.1825,-7.447501 -0.945,-3.915 -1.7325,-8.145 l 3.0375,0 q 0.27,1.53 0.5625,3.1275 0.315,1.5975 0.63,3.15 0.3375,1.53 0.675,2.970001 0.3375,1.44 0.675,2.655 0.4275,-1.1475 0.855,-2.4075 0.45,-1.282501 0.8775,-2.587501 0.4275,-1.3275 0.81,-2.6325 0.405,-1.305 0.7425,-2.52 l 2.43,0 z"
         style="font-style:normal;font-variant:normal;font-weight:500;font-stretch:normal;font-size:22.5px;font-family:Ubuntu;-inkscape-font-specification:'Ubuntu Medium';fill:#ffc000;fill-opacity:1"
         id="path4193"
         inkscape:connector-curvature="0" />
    </g>
    <rect
       style="opacity:1;fill:#f57900;fill-opacity:0;stroke:#ffc000;stroke-width:4;stroke-linecap:round;stroke-linejoin:round;stroke-miterlimit:4;stroke-dasharray:none;stroke-opacity:1"
       id="rect3340"
       width="171.42857"
       height="36.07143"
       x="64.64286"
       y="80.933632" />
  </g>
</svg>
