<?xml version="1.0" encoding="UTF-8" standalone="no"?>
<!-- Generator: Adobe Illustrator 22.0.1, SVG Export Plug-In . SVG Version: 6.00 Build 0)  -->
<svg id="Layer_1" style="enable-background:new 0 0 2585.2 765.4" xmlns="http://www.w3.org/2000/svg" xml:space="preserve" viewBox="0 0 2585.2 765.4" version="1.1" y="0px" x="0px" xmlns:xlink="http://www.w3.org/1999/xlink">
<style type="text/css">
	.st0{fill:#2E449C;}
	.st1{fill:#FE4304;}
	.st2{fill:url(#SVGID_1_);}
	.st3{fill:url(#SVGID_2_);}
	.st4{fill:#FD4406;}
</style>
		<path class="st0" d="m1112.6 287.4v52.7h-181.7v191.9h-58.3v-336.1c0-21 7.4-39.1 22.3-54.1 15-14.8 33.1-22.3 54.1-22.3h172.2v58.3h-172.3c-4.9 0-9.1 1.8-12.7 5.4s-5.3 7.8-5.3 12.7v91.6h181.7z"/>
		<path class="st0" d="m1348.3 460.7v65.7c-13.9 6.2-28.8 10.2-44.8 12.1-27 3.2-52.7-0.1-76.9-9.9-25.7-10.1-46-26.4-60.9-48.7-16.5-24.4-24.8-56-24.8-94.7 0-47.9 13.5-85.5 40.6-112.7 26.7-26.5 62.1-39.7 106.2-39.7s79.6 13.3 106.5 40c26.9 26.9 40.3 62.5 40.3 106.8v152.4h-58v-152.4c0-28.2-7.9-50.2-23.7-65.9-15.2-15.2-36.9-22.8-65.1-22.8-28 0-49.7 7.6-65.1 22.8-15.8 15.8-23.7 39.6-23.7 71.6 0 31.7 7.9 55.5 23.7 71.3 15.4 15.4 37.1 23.1 65.1 23.1 25.6-0.1 45.8-6.4 60.6-19z"/>
		<path class="st0" d="m1660.1 238.4v58h-9.3c-42.7 0-72.1 8.6-88.5 25.6-12.8 13.2-19.2 34.2-19.2 63.1v146.9h-58v-146.8c0-44.3 11.8-78.8 35.5-103.4 27.8-28.9 71.2-43.4 130.2-43.4h9.3z"/>
		<path class="st0" d="m1827.3 232.8c44.1 0 79.6 13.2 106.2 39.7 27 27.2 40.6 64.8 40.6 112.7s-13.5 85.4-40.6 112.4c-26.7 26.7-62.1 40-106.2 40s-79.6-13.3-106.2-40c-27-27.1-40.6-64.5-40.6-112.4s13.5-85.5 40.6-112.7c26.7-26.5 62.1-39.7 106.2-39.7zm-65.1 80.8c-15.8 15.8-23.7 39.6-23.7 71.6 0 31.7 7.9 55.5 23.7 71.3 15.4 15.4 37.1 23.1 65.1 23.1 28.2 0 49.9-7.7 65.1-23.1 15.8-15.8 23.7-39.5 23.7-71.3 0-31.9-7.9-55.8-23.7-71.6-15.2-15.2-36.9-22.8-65.1-22.8-28 0-49.7 7.6-65.1 22.8z"/>
		<path class="st0" d="m2079.9 532h-58v-411.4h58v411.4z"/>
		<path class="st1" d="m2460.4 120.6v58h-126.2v353.4h-58.3v-353.3h-126.2v-58h310.7z"/>
		<path class="st1" d="m2552.1 532h-58v-411.4h58v411.4z"/>
		<linearGradient id="SVGID_1_" y2="55.309" gradientUnits="userSpaceOnUse" x2="213.7" y1="445.93" x1="439.23">
			<stop stop-color="#F1A228" offset="0"/>
			<stop stop-color="#FE6605" offset=".5123"/>
			<stop stop-color="#FE4304" offset="1"/>
		</linearGradient>
		<path class="st2" d="m249.7 173.6h258.9c6.4 9.8 17.4 16.3 29.9 16.3 19.7 0 35.7-16 35.7-35.7s-16-35.7-35.7-35.7c-13.6 0-25.5 7.6-31.5 18.9h-257.6c-39.4 0.7-71.1 32.9-71.1 72.4v324.2c0.2 16.4-10.9 31.4-27.6 35.5-15.9 3.9-31.8-3.3-39.8-16.6-31.8-51-50.1-111.2-50.1-175.7 0-183.8 149-332.8 332.8-332.8 88.4 0 168.8 34.5 228.4 90.8-0.9 3.1-1.4 6.4-1.4 9.8 0 19.7 16 35.7 35.7 35.7s35.7-16 35.7-35.7-16-35.7-35.7-35.7c-2.8 0-5.6 0.4-8.2 1-66.2-62.9-155.8-101.7-254.5-101.7-203.7 0-368.8 165.1-368.8 368.7 0 72.2 20.7 139.5 56.6 196.3 2.5 3.9 5.1 7.2 7.9 9.7 17.9 19 45.4 27.7 72.3 20.2 31.9-8.9 52.8-37.8 53-69.4l-0.1-324.3c0-19.6 15.7-35.6 35.2-36.2z"/>
		<linearGradient id="SVGID_2_" y2="674.2" gradientUnits="userSpaceOnUse" x2="617.06" y1="237.35" x1="364.84">
			<stop stop-color="#68B6D5" offset="0"/>
			<stop stop-color="#5E87BE" offset=".4908"/>
			<stop stop-color="#3A54A4" offset=".7698"/>
			<stop stop-color="#2C3896" offset=".9218"/>
		</linearGradient>
		<path class="st3" d="m757.3 316.2c-4.7-36.6-36.1-63.2-72.1-63v-0.1h-338.8 2.6c-29.1 0.2-55.2 31.6-55.2 60.8s26.1 60.6 55.2 60.8c0 0 147-0.1 147.1-0.1 20 0 36.2 8.5 36.2 28.5s-16.2 28.5-36.2 28.5h-132.8v0.2c-37.3 2.9-66.7 34.2-66.7 72.3v76c-10.6 6.4-17.6 17.8-17.6 30.9 0 19.7 16 35.7 35.7 35.7s35.7-16 35.7-35.7c0-13.1-7.1-24.5-17.6-30.7v-76c0-20.1 16.2-36.3 36.3-36.3h0.8 126.3c40 0 72.4-24.7 72.4-64.7s-32.4-64.7-72.4-64.7h-147.1c-9.1-0.2-19-15.4-19-24.6 0-9.3 10.1-24.6 19.4-24.6h335.6c16.9-0.4 31.8 11.1 35.9 27.4l0.9 4.8c3.1 18.1 4.7 36.7 4.7 55.7 0 183.8-149 332.8-332.8 332.8-9.5 0-18.9-0.4-28.3-1.2-4.7-14.1-18.1-24.4-33.8-24.4-19.7 0-35.7 16-35.7 35.7s16 35.7 35.7 35.7c10.4 0 19.8-4.5 26.3-11.6 11.8 1.1 23.7 1.8 35.8 1.8 203.7 0 368.8-165.1 368.8-368.8-0.2-19.5-5.3-60.8-5.3-61.1z"/>
		<path class="st4" d="m917.8 602v9.3h-19.3c-4.8 0-8.6 1-11.5 3-2.4 1.6-3.6 3.8-3.6 6.5 0 3.4 1.7 5.8 5.2 7.2 2.1 0.9 5.3 1.6 9.6 2.3 7.1 1 12.2 2.3 15.2 4 5.2 2.8 7.7 7.7 7.7 14.7 0 6-2.6 10.7-7.7 14.2-4.5 3.1-9.7 4.6-15.8 4.6h-23.1v-9.3h23.1c4.2 0 7.7-1 10.6-3 2.4-1.7 3.6-3.8 3.6-6.5 0-3.3-1.7-5.7-5.2-7.2-2.1-0.9-5.3-1.6-9.6-2.3-7.1-1-12.2-2.3-15.2-4-5.2-2.8-7.7-7.7-7.7-14.7 0-5.9 2.6-10.7 7.7-14.2 4.5-3 10-4.5 16.7-4.5h19.3z"/>
		<path class="st4" d="m938.5 611.3h-9.3v-9.3h9.3v9.3zm0 56.4h-9.3v-46.9h9.3v46.9z"/>
		<path class="st4" d="m982.2 620.8v9.3h-17.3c-3.5 0-6.1 0.6-7.9 1.8-1.2 0.8-1.8 1.8-1.8 3 0 1.6 1.1 2.8 3.2 3.5 1.3 0.4 3.6 0.9 7.1 1.3 6.1 0.7 10.4 1.7 12.7 3 3.8 2.1 5.8 5.8 5.8 11.1 0 4.6-2 8.1-6 10.7-3.3 2.2-7.6 3.3-13 3.3h-17.6v-9.3h17.6c3.5 0 6.1-0.6 7.9-1.8 1.2-0.8 1.8-1.8 1.8-3 0-1.6-1.1-2.8-3.2-3.6-1.3-0.5-3.6-0.9-7.1-1.3-6.1-0.7-10.4-1.7-12.7-2.9-3.8-2.1-5.8-5.8-5.8-11.1 0-4.6 2-8.2 6-10.8 3.3-2.2 7.6-3.2 12.9-3.2h17.4z"/>
		<path class="st4" d="m1000.9 630.1v14.2c0 4.5 1.3 8 3.8 10.5 2.4 2.5 5.9 3.7 10.3 3.7h0.8v9.3h-0.8c-7 0-12.7-2.2-16.9-6.4-4.3-4.3-6.5-10-6.5-17v-42.4h9.3v18.8h14.6v9.3h-14.6z"/>
		<path class="st4" d="m1056 635.8c-0.9-1.5-1.9-2.7-3.2-3.7-2.4-1.8-5.6-2.7-9.5-2.7-4.6 0-8.1 1.2-10.7 3.7-2.5 2.5-3.8 6-3.8 10.4 0 3.4 0.8 6.5 2.3 9.2 0.4 0.7 0.9 1.3 1.4 1.8 2.5 2.5 5.9 3.8 10.3 3.9h19.2v9.3h-19.3c-7-0.1-12.6-2.3-16.9-6.6-4.3-4.4-6.4-10.1-6.4-17.2s2.2-12.9 6.6-17.3c4.3-4.3 10.1-6.4 17.2-6.4 6 0 11 1.5 15.1 4.6s6.8 7.4 8.1 12.9c0.3 1.2 0.2 2.4-0.5 3.5-0.6 1.1-1.5 1.8-2.7 2.2l-27.6 7.9-2.6-9 23-6.5z"/>
		<path class="st4" d="m1111.7 626.5c3.8-4.4 8.9-6.6 15.3-6.6s11.5 2.2 15.4 6.6c3.7 4.3 5.6 9.9 5.6 16.8v24.3h-9.3v-24.3c0-4.6-1.1-8.2-3.3-10.7-2-2.3-4.8-3.4-8.4-3.4s-6.4 1.1-8.4 3.4c-2.2 2.5-3.3 6.1-3.3 10.7v24.3h-9.3v-24.3c0-4.6-1.1-8.2-3.3-10.7-2-2.3-4.8-3.4-8.4-3.4s-6.4 1.1-8.4 3.4c-2.2 2.5-3.3 6.1-3.3 10.7v24.3h-9.3v-24.3c0-6.9 1.9-12.5 5.6-16.8 3.8-4.4 9-6.6 15.4-6.6s11.5 2.2 15.3 6.6c0.3 0.4 0.6 0.8 0.9 1.2 0.6-0.4 0.9-0.8 1.2-1.2z"/>
		<path class="st4" d="m1188.8 656.3v10.5c-2.2 1-4.6 1.6-7.2 1.9-4.3 0.5-8.4 0-12.3-1.6-4.1-1.6-7.3-4.2-9.7-7.8-2.6-3.9-4-8.9-4-15.1 0-7.6 2.2-13.6 6.5-18 4.3-4.2 9.9-6.3 17-6.3 7 0 12.7 2.1 17 6.4s6.4 10 6.4 17v24.3h-9.3v-24.3c0-4.5-1.3-8-3.8-10.5-2.4-2.4-5.9-3.6-10.4-3.6s-7.9 1.2-10.4 3.6c-2.5 2.5-3.8 6.3-3.8 11.4s1.3 8.9 3.8 11.4 5.9 3.7 10.4 3.7c4.2 0 7.4-1 9.8-3z"/>
		<path class="st4" d="m1245.6 620.8v9.3h-17.3c-3.5 0-6.1 0.6-7.9 1.8-1.2 0.8-1.8 1.8-1.8 3 0 1.6 1.1 2.8 3.2 3.5 1.3 0.4 3.6 0.9 7.1 1.3 6.1 0.7 10.4 1.7 12.7 3 3.8 2.1 5.8 5.8 5.8 11.1 0 4.6-2 8.1-6 10.7-3.3 2.2-7.6 3.3-13 3.3h-17.6v-9.3h17.6c3.5 0 6.1-0.6 7.9-1.8 1.2-0.8 1.8-1.8 1.8-3 0-1.6-1.1-2.8-3.2-3.6-1.3-0.5-3.6-0.9-7.1-1.3-6.1-0.7-10.4-1.7-12.7-2.9-3.8-2.1-5.8-5.8-5.8-11.1 0-4.6 2-8.2 6-10.8 3.3-2.2 7.6-3.2 13-3.2h17.3z"/>
		<path class="st4" d="m1318.9 602v9.2h-4.4c-8 0-14.2 0.9-18.7 2.9-7.5 3.3-11.2 10.1-11.2 20.5 0 10.5 3.7 17.4 11.2 20.7 4.6 2.1 10.9 3.1 18.7 3.1h4.4v9.3h-4.4c-11 0-19.3-1.4-25.1-4.2-9.4-4.6-14.1-14.3-14.1-28.8s4.7-24.1 14.1-28.6c5.6-2.7 14-4 25.1-4h4.4z"/>
		<path class="st4" d="m1346.8 619.9c7 0 12.7 2.1 17 6.3 4.3 4.3 6.5 10.3 6.5 18 0 7.6-2.2 13.6-6.5 17.9s-9.9 6.4-17 6.4c-7 0-12.7-2.1-17-6.4s-6.5-10.3-6.5-17.9 2.2-13.6 6.5-18c4.3-4.2 9.9-6.3 17-6.3zm-10.4 12.9c-2.5 2.5-3.8 6.3-3.8 11.4s1.3 8.9 3.8 11.4 5.9 3.7 10.4 3.7 8-1.2 10.4-3.7c2.5-2.5 3.8-6.3 3.8-11.4s-1.3-8.9-3.8-11.4c-2.4-2.4-5.9-3.6-10.4-3.6s-7.9 1.2-10.4 3.6z"/>
		<path class="st4" d="m1416.1 626.5c3.8-4.4 8.9-6.6 15.3-6.6s11.5 2.2 15.4 6.6c3.7 4.3 5.6 9.9 5.6 16.8v24.3h-9.3v-24.3c0-4.6-1.1-8.2-3.3-10.7-2-2.3-4.8-3.4-8.4-3.4s-6.4 1.1-8.4 3.4c-2.2 2.5-3.3 6.1-3.3 10.7v24.3h-9.3v-24.3c0-4.6-1.1-8.2-3.3-10.7-2-2.3-4.8-3.4-8.4-3.4s-6.4 1.1-8.4 3.4c-2.2 2.5-3.3 6.1-3.3 10.7v24.3h-9.3v-24.3c0-6.9 1.9-12.5 5.6-16.8 3.8-4.4 9-6.6 15.4-6.6s11.5 2.2 15.3 6.6c0.3 0.4 0.6 0.8 0.9 1.2 0.5-0.4 0.9-0.8 1.2-1.2z"/>
		<path class="st4" d="m1496 635.8c-0.9-1.5-1.9-2.7-3.2-3.7-2.4-1.8-5.6-2.7-9.5-2.7-4.6 0-8.1 1.2-10.7 3.7-2.5 2.5-3.8 6-3.8 10.4 0 3.4 0.8 6.5 2.3 9.2 0.4 0.7 0.9 1.3 1.4 1.8 2.5 2.5 5.9 3.8 10.3 3.9h19.2v9.3h-19.3c-7-0.1-12.6-2.3-16.9-6.6-4.3-4.4-6.4-10.1-6.4-17.2s2.2-12.9 6.6-17.3c4.3-4.3 10.1-6.4 17.2-6.4 6 0 11 1.5 15.1 4.6s6.8 7.4 8.1 12.9c0.3 1.2 0.2 2.4-0.5 3.5-0.6 1.1-1.5 1.8-2.7 2.2l-27.6 7.9-2.6-9 23-6.5z"/>
		<path class="st4" d="m1541.4 620.8v9.3h-1.5c-6.8 0-11.5 1.4-14.1 4.1-2 2.1-3.1 5.5-3.1 10.1v23.4h-9.3v-23.4c0-7.1 1.9-12.6 5.7-16.5 4.4-4.6 11.4-6.9 20.8-6.9h1.5z"/>
		<path class="st4" d="m1581.1 629.2h-2.8c-8.5 0-14.2 0.6-17.1 1.8-2 0.8-3.5 2.1-4.5 3.7-1.3 2.1-1.9 5.2-1.9 9.5 0 4.2 0.6 7.3 1.8 9.4 0.9 1.6 2.3 2.8 4.2 3.7 3 1.4 8.8 2.1 17.5 2h2.8v9.3h-2.8c-10 0-17.2-0.9-21.3-2.8-3.7-1.7-6.5-4.2-8.4-7.5-2-3.5-3.1-8.2-3.1-14 0-6 1.1-10.8 3.2-14.3 2-3.3 5-5.8 8.8-7.4 4.1-1.7 11-2.6 20.7-2.6h2.8v9.2z"/>
		<path class="st4" d="m1597.8 611.3h-9.3v-9.3h9.3v9.3zm0 56.4h-9.3v-46.9h9.3v46.9z"/>
		<path class="st4" d="m1639.2 656.3v10.5c-2.2 1-4.6 1.6-7.2 1.9-4.3 0.5-8.4 0-12.3-1.6-4.1-1.6-7.3-4.2-9.7-7.8-2.6-3.9-4-8.9-4-15.1 0-7.6 2.2-13.6 6.5-18 4.3-4.2 9.9-6.3 17-6.3 7 0 12.7 2.1 17 6.4s6.4 10 6.4 17v24.3h-9.3v-24.3c0-4.5-1.3-8-3.8-10.5-2.4-2.4-5.9-3.6-10.4-3.6s-7.9 1.2-10.4 3.6c-2.5 2.5-3.8 6.3-3.8 11.4s1.3 8.9 3.8 11.4 5.9 3.7 10.4 3.7c4.2 0 7.5-1 9.8-3z"/>
		<path class="st4" d="m1671.9 611.3h-9.3v-9.3h9.3v9.3zm0 56.4h-9.3v-46.9h9.3v46.9z"/>
		<path class="st4" d="m1715.6 620.8v9.3h-17.3c-3.5 0-6.1 0.6-7.9 1.8-1.2 0.8-1.8 1.8-1.8 3 0 1.6 1.1 2.8 3.2 3.5 1.3 0.4 3.6 0.9 7.1 1.3 6.1 0.7 10.4 1.7 12.7 3 3.8 2.1 5.8 5.8 5.8 11.1 0 4.6-2 8.1-6 10.7-3.3 2.2-7.6 3.3-13 3.3h-17.6v-9.3h17.6c3.5 0 6.1-0.6 7.9-1.8 1.2-0.8 1.8-1.8 1.8-3 0-1.6-1.1-2.8-3.2-3.6-1.3-0.5-3.6-0.9-7.1-1.3-6.1-0.7-10.4-1.7-12.7-2.9-3.8-2.1-5.8-5.8-5.8-11.1 0-4.6 2-8.2 6-10.8 3.3-2.2 7.6-3.2 12.9-3.2h17.4z"/>
		<path class="st4" d="m1749 602h9.3v65.7h-9.3v-65.7z"/>
		<path class="st4" d="m1834.4 602v9.2h-4.4c-8 0-14.2 0.9-18.7 2.9-7.5 3.3-11.2 10.1-11.2 20.5 0 10.5 3.7 17.4 11.2 20.7 4.6 2.1 10.9 3.1 18.7 3.1h4.4v9.3h-4.4c-11 0-19.3-1.4-25.1-4.2-9.4-4.6-14.1-14.3-14.1-28.8s4.7-24.1 14.1-28.6c5.6-2.7 14-4 25.1-4h4.4z"/>
		<path class="st4" d="m1874.9 635.8c-0.9-1.5-1.9-2.7-3.2-3.7-2.4-1.8-5.6-2.7-9.5-2.7-4.6 0-8.1 1.2-10.7 3.7-2.5 2.5-3.8 6-3.8 10.4 0 3.4 0.8 6.5 2.3 9.2 0.4 0.7 0.9 1.3 1.4 1.8 2.5 2.5 5.9 3.8 10.3 3.9h19.2v9.3h-19.3c-7-0.1-12.6-2.3-16.9-6.6-4.3-4.4-6.4-10.1-6.4-17.2s2.2-12.9 6.6-17.3c4.3-4.3 10.1-6.4 17.2-6.4 6 0 11 1.5 15.1 4.6s6.8 7.4 8.1 12.9c0.3 1.2 0.2 2.4-0.5 3.5-0.6 1.1-1.5 1.8-2.7 2.2l-27.6 7.9-2.6-9 23-6.5z"/>
		<path class="st4" d="m1920.3 620.8v9.3h-1.5c-6.8 0-11.5 1.4-14.1 4.1-2 2.1-3.1 5.5-3.1 10.1v23.4h-9.3v-23.4c0-7.1 1.9-12.6 5.7-16.5 4.4-4.6 11.4-6.9 20.8-6.9h1.5z"/>
		<path class="st4" d="m1936.1 630.1v14.2c0 4.5 1.3 8 3.8 10.5 2.4 2.5 5.9 3.7 10.3 3.7h0.8v9.3h-0.8c-7 0-12.7-2.2-16.9-6.4-4.3-4.3-6.5-10-6.5-17v-42.4h9.3v18.8h14.6v9.3h-14.6z"/>
		<path class="st4" d="m1966.5 611.3h-9.3v-9.3h9.3v9.3zm0 56.4h-9.3v-46.9h9.3v46.9z"/>
		<path class="st4" d="m2006.3 625.3v9.3h-20.8v33.1h-9.3v-42.2c0-7 2.1-12.6 6.4-17 4.2-4.3 9.8-6.4 16.7-6.5h7.6v9.3h-7.5c-4.4 0-7.8 1.3-10.2 3.7-2.5 2.5-3.7 5.9-3.7 10.3h20.8z"/>
		<path class="st4" d="m2023.4 611.3h-9.3v-9.3h9.3v9.3zm0 56.4h-9.3v-46.9h9.3v46.9z"/>
		<path class="st4" d="m2067.2 629.2h-2.8c-8.5 0-14.1 0.6-17.1 1.8-2 0.8-3.5 2.1-4.5 3.7-1.3 2.1-1.9 5.2-1.9 9.5 0 4.2 0.6 7.3 1.8 9.4 0.9 1.6 2.3 2.8 4.2 3.7 3 1.4 8.8 2.1 17.5 2h2.8v9.3h-2.8c-10 0-17.1-0.9-21.3-2.8-3.7-1.7-6.5-4.2-8.4-7.5-2-3.5-3.1-8.2-3.1-14 0-6 1.1-10.8 3.2-14.3 2-3.3 4.9-5.8 8.8-7.4 4.1-1.7 11-2.6 20.7-2.6h2.8v9.2z"/>
		<path class="st4" d="m2105.7 656.3v10.5c-2.2 1-4.6 1.6-7.1 1.9-4.3 0.5-8.4 0-12.3-1.6-4.1-1.6-7.3-4.2-9.7-7.8-2.6-3.9-4-8.9-4-15.1 0-7.6 2.2-13.6 6.5-18 4.3-4.2 9.9-6.3 17-6.3s12.7 2.1 17 6.4c4.3 4.3 6.4 10 6.4 17v24.3h-9.3v-24.3c0-4.5-1.3-8-3.8-10.5-2.4-2.4-5.9-3.6-10.4-3.6s-7.9 1.2-10.4 3.6c-2.5 2.5-3.8 6.3-3.8 11.4s1.3 8.9 3.8 11.4 5.9 3.7 10.4 3.7c4.1 0 7.4-1 9.7-3z"/>
		<path class="st4" d="m2162.7 629.2h-2.8c-8.5 0-14.1 0.6-17.1 1.8-2 0.8-3.5 2.1-4.5 3.7-1.3 2.1-1.9 5.2-1.9 9.5 0 4.2 0.6 7.3 1.8 9.4 0.9 1.6 2.3 2.8 4.2 3.7 3 1.4 8.8 2.1 17.5 2h2.8v9.3h-2.8c-10 0-17.1-0.9-21.3-2.8-3.7-1.7-6.5-4.2-8.4-7.5-2-3.5-3.1-8.2-3.1-14 0-6 1.1-10.8 3.2-14.3 2-3.3 4.9-5.8 8.8-7.4 4.1-1.7 11-2.6 20.7-2.6h2.8v9.2zm-5 42.1l-8.1 15.9h-7.8l6.1-15.9h9.8z"/>
		<path class="st4" d="m2203.6 656.3v10.5c-2.2 1-4.6 1.6-7.2 1.9-4.3 0.5-8.4 0-12.3-1.6-4.1-1.6-7.3-4.2-9.7-7.8-2.6-3.9-4-8.9-4-15.1 0-7.6 2.2-13.6 6.5-18 4.3-4.2 9.9-6.3 17-6.3s12.7 2.1 17 6.4c4.3 4.3 6.4 10 6.4 17v24.3h-9.3v-24.3c0-4.5-1.3-8-3.8-10.5-2.4-2.4-5.9-3.6-10.4-3.6s-7.9 1.2-10.4 3.6c-2.5 2.5-3.8 6.3-3.8 11.4s1.3 8.9 3.8 11.4 5.9 3.7 10.4 3.7c4.2 0 7.5-1 9.8-3zm-18.8-38.7l-7.3-1.5 0.8-3.6c0.4-2.1 1.5-3.9 3.1-5.4 1.7-1.6 3.7-2.3 5.8-2.3s4.9 1 8.5 3c2.5 1.4 4.2 2.2 5.1 2.2 0.4 0 0.8-0.1 1.2-0.4 0.3-0.2 0.6-0.7 0.7-1.3l0.7-3.7 7.3 1.5-0.7 3.6c-0.5 2.3-1.5 4.2-3.2 5.6-1.7 1.5-3.7 2.2-6.1 2.2-2.2 0-5.1-1-8.7-3.1-2.4-1.4-4-2.1-4.8-2.1-0.2 0-0.5 0.1-0.8 0.4-0.4 0.4-0.7 0.9-0.9 1.4l-0.7 3.5z"/>
		<path class="st4" d="m2248.5 619.9c7 0 12.7 2.1 17 6.3 4.3 4.3 6.5 10.3 6.5 18 0 7.6-2.2 13.6-6.5 17.9s-9.9 6.4-17 6.4c-7 0-12.7-2.1-17-6.4s-6.5-10.3-6.5-17.9 2.2-13.6 6.5-18c4.3-4.2 9.9-6.3 17-6.3zm-10.4 12.9c-2.5 2.5-3.8 6.3-3.8 11.4s1.3 8.9 3.8 11.4 5.9 3.7 10.4 3.7 8-1.2 10.4-3.7c2.5-2.5 3.8-6.3 3.8-11.4s-1.3-8.9-3.8-11.4c-2.4-2.4-5.9-3.6-10.4-3.6s-8 1.2-10.4 3.6z"/>
		<path class="st4" d="m2311.6 667.7h-9.3v-53.7c0-3.4 1.2-6.2 3.6-8.6s5.3-3.5 8.6-3.5h12.8c6.5 0 12 1.9 16.7 5.8 4.2 3.5 7.3 8.2 9.3 14.1 1.4 4.1 2.1 8.5 2.1 13s-0.7 8.9-2.1 13c-2 6-5.1 10.7-9.3 14.2-4.6 3.8-10.2 5.8-16.7 5.8h-11.2v-9.3h11.2c4.2 0 7.9-1.3 11-3.9 2.8-2.4 4.8-5.6 6.2-9.6 1-3.1 1.6-6.5 1.6-10.1s-0.5-7-1.6-10.1c-1.4-4-3.4-7.2-6.2-9.6-3.1-2.6-6.7-3.9-11-3.9h-12.8c-0.8 0-1.5 0.3-2 0.8-0.6 0.6-0.9 1.3-0.9 2.1v53.5z"/>
		<path class="st4" d="m2372.9 611.3h-9.3v-9.3h9.3v9.3zm0 56.4h-9.3v-46.9h9.3v46.9z"/>
		<path class="st4" d="m2414.6 655.7v10.3c-3 1.1-6.3 1.7-9.9 1.7-7 0-12.7-2.1-17-6.4s-6.5-10-6.5-17c0-7.6 2.2-13.6 6.5-18 4.3-4.2 9.9-6.3 17-6.3 7 0 12.7 2.1 17 6.3 4.3 4.3 6.5 10.3 6.5 18v18.8c0 7-2.1 12.7-6.4 17s-9.9 6.4-16.9 6.4h-14.5v-9.3h14.5c4.5 0 7.9-1.2 10.3-3.7 2.4-2.4 3.6-5.7 3.7-9.9-0.1 0-0.1 0.1-0.2 0.1l0.1-0.1v-17.1-0.4-2c0-5.1-1.3-8.9-3.8-11.4-2.4-2.4-5.9-3.6-10.4-3.6s-7.9 1.2-10.4 3.6c-2.5 2.5-3.8 6.3-3.8 11.4 0 4.5 1.3 8 3.8 10.5s5.9 3.7 10.4 3.7c4.2 0.2 7.5-0.8 10-2.6z"/>
		<path class="st4" d="m2447 611.3h-9.3v-9.3h9.3v9.3zm0 56.4h-9.3v-46.9h9.3v46.9z"/>
		<path class="st4" d="m2467 630.1v14.2c0 4.5 1.3 8 3.8 10.5 2.4 2.5 5.9 3.7 10.3 3.7h0.8v9.3h-0.8c-7 0-12.7-2.2-16.9-6.4-4.3-4.3-6.5-10-6.5-17v-42.4h9.3v18.8h14.6v9.3h-14.6z"/>
		<path class="st4" d="m2519.2 656.3v10.5c-2.2 1-4.6 1.6-7.2 1.9-4.3 0.5-8.4 0-12.3-1.6-4.1-1.6-7.3-4.2-9.7-7.8-2.6-3.9-4-8.9-4-15.1 0-7.6 2.2-13.6 6.5-18 4.3-4.2 9.9-6.3 17-6.3 7 0 12.7 2.1 17 6.4s6.4 10 6.4 17v24.3h-9.3v-24.3c0-4.5-1.3-8-3.8-10.5-2.4-2.4-5.9-3.6-10.4-3.6s-7.9 1.2-10.4 3.6c-2.5 2.5-3.8 6.3-3.8 11.4s1.3 8.9 3.8 11.4 5.9 3.7 10.4 3.7c4.2 0 7.4-1 9.8-3z"/>
		<path class="st4" d="m2552.1 667.7h-9.3v-65.7h9.3v65.7z"/>
</svg>
